<svg width="64" height="64" viewBox="0 0 64 64" fill="none" xmlns="http://www.w3.org/2000/svg">
<path d="M12.4428 40C11.0589 40 9.79041 39.8224 8.63719 39.4672C7.49754 39.112 6.50714 38.6134 5.66597 37.9713C4.8248 37.3156 4.16678 36.5301 3.69193 35.6148C3.23064 34.6858 3 33.6475 3 32.5C3 31.4071 3.23064 30.403 3.69193 29.4877C4.16678 28.5724 4.8248 27.7869 5.66597 27.1311C6.5207 26.4617 7.52468 25.9495 8.6779 25.5943C9.83111 25.2391 11.0929 25.0615 12.4632 25.0615C13.8335 25.0615 15.0884 25.2391 16.2281 25.5943C17.3677 25.9495 18.3581 26.4549 19.1993 27.1107C20.054 27.7664 20.712 28.5519 21.1733 29.4672C21.6482 30.3825 21.8856 31.3866 21.8856 32.4795C21.8856 33.6134 21.6482 34.6448 21.1733 35.5738C20.712 36.4891 20.0608 37.2746 19.2197 37.9303C18.3785 38.5861 17.3813 39.0984 16.2281 39.4672C15.0884 39.8224 13.8267 40 12.4428 40ZM12.4428 35.7787C13.2975 35.7787 14.037 35.6489 14.6611 35.3893C15.2851 35.1161 15.7668 34.7336 16.106 34.2418C16.4451 33.75 16.6147 33.1762 16.6147 32.5205C16.6147 31.8511 16.4451 31.2773 16.106 30.7992C15.7668 30.3074 15.2851 29.9317 14.6611 29.6721C14.0505 29.4126 13.3111 29.2828 12.4428 29.2828C11.5881 29.2828 10.8487 29.4194 10.2246 29.6926C9.60047 29.9522 9.11883 30.3279 8.77965 30.8197C8.44047 31.3115 8.27088 31.8852 8.27088 32.541C8.27088 33.1967 8.44047 33.7705 8.77965 34.2623C9.11883 34.7404 9.60047 35.1161 10.2246 35.3893C10.8487 35.6489 11.5881 35.7787 12.4428 35.7787Z" fill="black"/>
<path d="M24.9672 34.4057V30.8197H34.666V34.4057H24.9672Z" fill="black"/>
<path d="M36.9046 39.4467L39.1839 25H44.3937L42.1144 39.4467H36.9046Z" fill="black"/>
<path d="M45.2077 39.4467L47.487 25H52.6968L50.4175 39.4467H45.2077Z" fill="black"/>
<path d="M53.5109 39.4467L55.7902 25H61L58.7207 39.4467H53.5109Z" fill="black"/>
</svg>
